# xmcd
#
# Track frame offsets:
#	187
#	13230
#	30255
#	43717
#	58132
#	74087
#	91892
#	106522
#	127375
#	140377
#	156057
#	169200
#	181940
#	195435
#	206775
#	220965
#	239895
#
# Disc length: 3397 seconds
# Revision: 0
# Processed by: cddbd v1.5.2PL0 Copyright (c) Steve Scherf et al.
# Submitted via: dBpowerAMP V12.0
#
DISCID=fd0d4311
DTITLE=Various Artist - God Bless The U.S.A. (2 of 4)
DYEAR=1900
DGENRE=Country
TTITLE0=Patsy Cline and Jim Reeves - I Fall to Pieces
TTITLE1=Kris Kristofferson - Loving Arms
TTITLE2=Glen Campbell - Dream Lover
TTITLE3=Conway Twitty and Loretta Lynn - I Still Believe In Waltzes
TTITLE4=Keith Whitley and Lorrie Morgan - 'Til A Tear Becomes A Rose
TTITLE5=Marie Osmond and Dan Seals - Meet Me In Montana
TTITLE6=Barbara Mandrell and Lee Greenwood - To Me
TTITLE7=The Statler Brothers - Amazing Grace
TTITLE8=THe Statler Brothers - Do You Remember These
TTITLE9=The Statler Brothers - How To Become a Country Star
TTITLE10=The Statler Brothers - Charlotte's Web
TTITLE11=THe Statler Brothers - Blue Eyes Crying In The Rain
TTITLE12=The Statler Brothers - How Great Thou Art
TTITLE13=Cristy Lane - He's Got The Whole World In His Hands
TTITLE14=B. J. Thomas - In The Garden
TTITLE15=Nanci Griffith - From A Distance
TTITLE16=Glen Campbell - God Must Have Blessed America
EXTD=
EXTT0=
EXTT1=
EXTT2=
EXTT3=
EXTT4=
EXTT5=
EXTT6=
EXTT7=
EXTT8=
EXTT9=
EXTT10=
EXTT11=
EXTT12=
EXTT13=
EXTT14=
EXTT15=
EXTT16=
PLAYORDER=
